<?xml version="1.0" encoding="UTF-8"?>
<svg width="56px" height="40px" viewBox="0 0 56 40" version="1.1" xmlns="http://www.w3.org/2000/svg" xmlns:xlink="http://www.w3.org/1999/xlink">
    <!-- Generator: Sketch 45.1 (43504) - http://www.bohemiancoding.com/sketch -->
    <title>Campaign Kit Logo White</title>
    <desc>Created with Sketch.</desc>
    <defs></defs>
    <g id="Symbols" stroke="none" stroke-width="1" fill="none" fill-rule="evenodd">
        <g id="Nav-Not-Logged-In" transform="translate(-42.000000, -8.000000)">
            <g id="Group" transform="translate(38.000000, 8.000000)">
                <g id="Campaign-Kit-Logo-White">
                    <g id="paper-plane" transform="translate(11.000000, 0.000000)">
                        <path d="M-5.12424382,11.026484 L49,0 L3.36398889,23 L-6.06665309,14.4694519 L-6.06665309,14.4694519 C-6.88581462,13.728474 -6.94919501,12.4637312 -6.20821716,11.6445697 C-5.92205463,11.3282129 -5.54223788,11.11164 -5.12424382,11.026484 Z" id="Shape" fill="#FFFFFF" fill-rule="nonzero"></path>
                        <path d="M4,32.9553606 L4,23.6758738 L49,0 L5.61394061,33.7447129 L5.61394061,33.7447129 C5.17799342,34.0837829 4.54971782,34.0052484 4.21064778,33.5693013 C4.07412221,33.3937684 4,33.1777365 4,32.9553606 Z" id="Shape" fill="#E8E8E8" fill-rule="nonzero"></path>
                        <path d="M22.8242749,39.2896954 L11,28.8260531 L49,0 L25.8677343,38.8158056 L25.8677343,38.8158056 C25.3022664,39.7646574 24.0746677,40.0754515 23.1258158,39.5099836 C23.0186519,39.4461193 22.9176983,39.3723685 22.8242749,39.2896954 Z" id="Shape" fill="#FFFFFF" fill-rule="nonzero"></path>
                    </g>
                </g>
            </g>
        </g>
    </g>
</svg>