<?xml version="1.0" encoding="utf-8"?>
<svg version="1.2" xmlns="http://www.w3.org/2000/svg" xmlns:xlink="http://www.w3.org/1999/xlink" x="0px" y="0px" viewBox="0 0 35 29" xml:space="preserve">
	<g id="Symbols" stroke="none" stroke-width="1" fill="none" fill-rule="evenodd">
        <g id="Nav-Logged-In" transform="translate(-187.000000, -79.000000)" fill-rule="nonzero" fill="#7C94B7">
            <g id="ic_photo_size_select_large_black_48px" transform="translate(187.000000, 75.000000)">
                <path d="M31.046683,23.027027 L34.0540541,23.027027 L34.0540541,26.0540541 L31.046683,26.0540541 L31.046683,23.027027 Z M31.046683,16.972973 L34.0540541,16.972973 L34.0540541,20 L31.046683,20 L31.046683,16.972973 Z M34.0540541,29.0810811 L31.046683,29.0810811 L31.046683,32.1081081 C32.5503686,32.1081081 34.0540541,30.5945946 34.0540541,29.0810811 Z M19.017199,4.86486486 L22.02457,4.86486486 L22.02457,7.89189189 L19.017199,7.89189189 L19.017199,4.86486486 Z M31.046683,10.9189189 L34.0540541,10.9189189 L34.0540541,13.9459459 L31.046683,13.9459459 L31.046683,10.9189189 Z M31.046683,4.86486486 L31.046683,7.89189189 L34.0540541,7.89189189 C34.0540541,6.37837838 32.5503686,4.86486486 31.046683,4.86486486 Z M0.972972973,10.9189189 L3.98034398,10.9189189 L3.98034398,13.9459459 L0.972972973,13.9459459 L0.972972973,10.9189189 Z M25.031941,4.86486486 L28.039312,4.86486486 L28.039312,7.89189189 L25.031941,7.89189189 L25.031941,4.86486486 Z M25.031941,29.0810811 L28.039312,29.0810811 L28.039312,32.1081081 L25.031941,32.1081081 L25.031941,29.0810811 Z M3.98034398,4.86486486 C2.47665848,4.86486486 0.972972973,6.37837838 0.972972973,7.89189189 L3.98034398,7.89189189 L3.98034398,4.86486486 Z M13.002457,4.86486486 L16.009828,4.86486486 L16.009828,7.89189189 L13.002457,7.89189189 L13.002457,4.86486486 Z M6.98771499,4.86486486 L9.995086,4.86486486 L9.995086,7.89189189 L6.98771499,7.89189189 L6.98771499,4.86486486 Z M0.972972973,16.972973 L0.972972973,29.0810811 C0.972972973,30.7459459 2.32628993,32.1081081 3.98034398,32.1081081 L22.02457,32.1081081 L22.02457,16.972973 L0.972972973,16.972973 Z M3.98034398,29.0810811 L7.73955774,24.2227027 L10.4311548,27.4767568 L14.1903686,22.6032432 L19.017199,29.0810811 L3.98034398,29.0810811 Z" id="Shape"></path>
            </g>
        </g>
    </g>
</svg>
