<?xml version="1.0" encoding="utf-8"?>
<svg version="1.2" xmlns="http://www.w3.org/2000/svg" xmlns:xlink="http://www.w3.org/1999/xlink" x="0px" y="0px" viewBox="0 0 28 28" xml:space="preserve">
	<g id="Symbols" stroke="none" stroke-width="1" fill="none" fill-rule="evenodd">
        <g id="Nav-Logged-In" transform="translate(-454.000000, -79.000000)">
            <g id="ic_device_hub_black_48px" transform="translate(450.000000, 75.000000)">
                <polygon id="Shape" points="0 0 36 0 36 36 0 36"></polygon>
                <path d="M25.5,24 L19.5,18 L19.5,13.23 C21.24,12.6 22.5,10.95 22.5,9 C22.5,6.51 20.49,4.5 18,4.5 C15.51,4.5 13.5,6.51 13.5,9 C13.5,10.95 14.76,12.6 16.5,13.23 L16.5,18 L10.5,24 L4.5,24 L4.5,31.5 L12,31.5 L12,26.925 L18,20.625 L24,26.925 L24,31.5 L31.5,31.5 L31.5,24 L25.5,24 Z" id="Shape" fill="#7C94B7" fill-rule="nonzero"></path>
            </g>
        </g>
    </g>
</svg>
