<?xml version="1.0" encoding="UTF-8"?>
<svg viewBox="0 0 18 18" version="1.1" xmlns="http://www.w3.org/2000/svg" xmlns:xlink="http://www.w3.org/1999/xlink">
    <path d="M9,0A9,9,0,0,0,9,18a1.53,1.53,0,0,0,1.5-1.5,1.28,1.28,0,0,0-.4-1C9.9,15.2,9.7,15.4,9.7,15c0-.8.7-1,1.5-1H13c2.8,0,5-2.7,5-5.5C18,4.1,14,0,9,0ZM3.5,9a1.5,1.5,0,0,1,0-3A1.5,1.5,0,1,1,3.5,9Zm3-4A1.54,1.54,0,0,1,5,3.5,1.54,1.54,0,0,1,6.5,2,1.53,1.53,0,0,1,8,3.5,1.54,1.54,0,0,1,6.5,5Zm5,0A1.54,1.54,0,0,1,10,3.5a1.5,1.5,0,0,1,3,0A1.54,1.54,0,0,1,11.5,5Zm3,4A1.54,1.54,0,0,1,13,7.5a1.5,1.5,0,0,1,3,0A1.54,1.54,0,0,1,14.5,9Z"></path>
</svg>