<?xml version="1.0" encoding="UTF-8"?>
<svg viewBox="0 0 27 27" version="1.1" xmlns="http://www.w3.org/2000/svg" xmlns:xlink="http://www.w3.org/1999/xlink">
    <g id="Symbols" stroke="none" stroke-width="1" fill="none" fill-rule="evenodd">
        <g id="Login-With-Facebook" transform="translate(-15.000000, -6.000000)">
            <g id="Page-1" transform="translate(15.000000, 6.000000)">
                <path d="M25.5129244,27 C26.332341,27 27,26.3323336 27,25.5129261 L27,1.48707546 C27,0.667669012 26.332341,0 25.5129244,0 L1.48707358,0 C0.667665838,0 0,0.667669012 0,1.48707546 L0,25.5028095 C0,26.3222168 0.667665838,26.9898832 1.48707358,26.9898832 L25.5129244,26.9898832 L25.5129244,27 Z" id="Fill-1" fill="#FFFFFF"></path>
                <path d="M18.7892909,27 L18.7892909,16.9611685 L22.3270998,16.9611685 L22.8572593,13.0485454 L18.7892909,13.0485454 L18.7892909,10.5533993 C18.7892909,9.41747586 19.1155452,8.6504877 20.828373,8.6504877 L23,8.6504877 L23,5.15533556 C22.6227668,5.10679017 21.3279553,5 19.8292285,5 C16.6890342,5 14.5480046,6.825239 14.5480046,10.1650459 L14.5480046,13.0485454 L11,13.0485454 L11,16.9611685 L14.5480046,16.9611685 L14.5480046,27 L18.7892909,27 Z" id="Fill-3" fill="#39579A"></path>
            </g>
        </g>
    </g>
</svg>