<?xml version="1.0" encoding="UTF-8"?>
<svg viewBox="0 0 38 36" version="1.1" xmlns="http://www.w3.org/2000/svg" xmlns:xlink="http://www.w3.org/1999/xlink">
    <g id="Symbols" stroke="none" stroke-width="1" fill="none" fill-rule="evenodd">
        <g id="Nav-Logged-In" transform="translate(-602.000000, -76.000000)" stroke="#7C94B7" fill-rule="nonzero" fill="#7C94B7">
            <g id="link" transform="translate(603.000000, 77.000000)">
                <path d="M19.021118,14.4074534 C18.626087,14.8024845 18.626087,15.4360248 19.021118,15.8310559 C20.6534161,17.463354 20.6534161,20.1167702 19.021118,21.7490683 L10.4496894,30.3204969 C8.8173913,31.952795 6.16397516,31.952795 4.53167702,30.3204969 L3.24223602,29.0310559 C1.60993789,27.3987578 1.60993789,24.7453416 3.24223602,23.1130435 L11.8136646,14.5416149 C12.2086957,14.1465839 12.2086957,13.5130435 11.8136646,13.1180124 C11.4186335,12.7229814 10.7850932,12.7229814 10.3900621,13.1180124 L1.81863354,21.689441 C0.648447205,22.8596273 0,24.4173913 0,26.0720497 C0,27.7267081 0.640993789,29.284472 1.81863354,30.4546584 L3.10807453,31.7440994 C4.31552795,32.9515528 5.90310559,33.5552795 7.49068323,33.5552795 C9.07826087,33.5552795 10.6658385,32.9515528 11.8732919,31.7440994 L20.4447205,23.1726708 C22.8596273,20.757764 22.8596273,16.8223602 20.4447205,14.4074534 C20.0571429,14.0124224 19.4161491,14.0124224 19.021118,14.4074534 Z" id="Shape"></path>
                <path d="M34.173913,3.14534161 L32.884472,1.85590062 C30.4695652,-0.559006211 26.5341615,-0.559006211 24.1192547,1.85590062 L15.5478261,10.4273292 C13.1329193,12.842236 13.1329193,16.7776398 15.5478261,19.1925466 C15.9428571,19.5875776 16.5763975,19.5875776 16.9714286,19.1925466 C17.3664596,18.7975155 17.3664596,18.1639752 16.9714286,17.7689441 C15.3391304,16.136646 15.3391304,13.4832298 16.9714286,11.8509317 L25.5428571,3.27950311 C27.1751553,1.64720497 29.8285714,1.64720497 31.4608696,3.27950311 L32.7503106,4.5689441 C34.3826087,6.20124224 34.3826087,8.85465839 32.7503106,10.4869565 L24.178882,19.0583851 C23.7838509,19.4534161 23.7838509,20.0869565 24.178882,20.4819876 C24.3726708,20.6757764 24.6335404,20.7801242 24.8869565,20.7801242 C25.1403727,20.7801242 25.4012422,20.6832298 25.5950311,20.4819876 L34.1664596,11.910559 C35.336646,10.7403727 35.9850932,9.1826087 35.9850932,7.52795031 C35.9850932,5.87329193 35.3440994,4.31552795 34.173913,3.14534161 Z" id="Shape"></path>
            </g>
        </g>
    </g>
</svg>