<?xml version="1.0" encoding="UTF-8"?>
<svg viewBox="0 0 20 20" version="1.1" xmlns="http://www.w3.org/2000/svg" xmlns:xlink="http://www.w3.org/1999/xlink">
    <path d="M18,7.51l-2.29-.43a7.63,7.63,0,0,0-.82-1.51L16,3.66h0L14.31,2h0L12.39,3.11a9.15,9.15,0,0,0-1.74-.72L10,0.05V0H7.51L7.08,2.29a7.63,7.63,0,0,0-1.51.82L3.66,2h0L2,3.69H2L3.11,5.61A7.28,7.28,0,0,0,2.4,7.08l-2.34.43H0v2.93H0l2.28,0.43a7.68,7.68,0,0,0,.83,1.52L2,14.31H2L3.86,16H3.76l1.86-1.12a7,7,0,0,0,1.48.73L7.52,18v0h2.93l0.43-2.28a7.68,7.68,0,0,0,1.52-.83L14.31,16h0L16,14.14v0.1l-1.12-1.86a7,7,0,0,0,.74-1.53L18,10.43h0V7.51h0ZM9,13a4,4,0,1,1,4-4A4,4,0,0,1,9,13Z"></path>
    <circle cx="9" cy="9" r="2"></circle>
</svg>