<?xml version="1.0" encoding="UTF-8"?>
<svg  viewBox="0 0 30 30" version="1.1" xmlns="http://www.w3.org/2000/svg" xmlns:xlink="http://www.w3.org/1999/xlink">
    <g id="Symbols" stroke="none" stroke-width="1" fill="none" fill-rule="evenodd">
        <g id="Nav-Logged-In" transform="translate(-1328.000000, -77.000000)" fill="#7C94B7">
            <path d="M1353.73568,93.462497 C1353.79568,92.982497 1353.84068,92.494997 1353.84068,91.999997 C1353.84068,91.504997 1353.79568,91.017497 1353.73568,90.537497 L1356.90818,88.054997 C1357.19318,87.829997 1357.27568,87.424997 1357.08818,87.094997 L1354.08818,81.897497 C1353.90068,81.574997 1353.51068,81.439997 1353.17318,81.574997 L1349.43818,83.082497 C1348.66568,82.489997 1347.81818,81.987497 1346.90318,81.604997 L1346.34068,77.629997 C1346.27318,77.277497 1345.96568,76.999997 1345.59068,76.999997 L1339.59068,76.999997 C1339.21568,76.999997 1338.90818,77.277497 1338.84818,77.629997 L1338.28568,81.604997 C1337.37068,81.987497 1336.52318,82.482497 1335.75068,83.082497 L1332.01568,81.574997 C1331.67818,81.447497 1331.28818,81.574997 1331.10068,81.897497 L1328.10068,87.094997 C1327.91318,87.417497 1327.99568,87.822497 1328.28068,88.054997 L1331.44568,90.537497 C1331.38568,91.017497 1331.34068,91.504997 1331.34068,91.999997 C1331.34068,92.494997 1331.38568,92.982497 1331.44568,93.462497 L1328.28069,95.944997 C1327.99568,96.169997 1327.91318,96.574997 1328.10068,96.904997 L1331.10068,102.102497 C1331.28818,102.424997 1331.67819,102.559999 1332.01569,102.424997 L1335.75068,100.917497 C1336.52318,101.509997 1337.37068,102.012497 1338.28568,102.394997 L1338.84818,106.37 C1338.90818,106.722501 1339.21568,107 1339.59068,107 L1345.59068,107 C1345.96568,107 1346.27318,106.722501 1346.33318,106.37 L1346.89568,102.394997 C1347.81068,102.012505 1348.65818,101.517497 1349.43068,100.917497 L1353.16568,102.424997 C1353.50318,102.552497 1353.89318,102.424997 1354.08068,102.102497 L1357.08068,96.904997 C1357.26818,96.582497 1357.18568,96.177497 1356.90068,95.944997 L1353.73568,93.462497 Z M1342.59068,97.249997 C1339.68818,97.249997 1337.34068,94.902497 1337.34068,91.999997 C1337.34068,89.097497 1339.68818,86.749997 1342.59068,86.749997 C1345.49318,86.749997 1347.84068,89.097497 1347.84068,91.999997 C1347.84068,94.902497 1345.49318,97.249997 1342.59068,97.249997 Z" id="Page-1"></path>
        </g>
    </g>
</svg>