<?xml version="1.0" encoding="UTF-8"?>
<svg width="26px" height="24px" viewBox="0 0 26 24" version="1.1" xmlns="http://www.w3.org/2000/svg" xmlns:xlink="http://www.w3.org/1999/xlink">
    <!-- Generator: Sketch 46 (44423) - http://www.bohemiancoding.com/sketch -->
    <title>campaign</title>
    <desc>Created with Sketch.</desc>
    <defs></defs>
    <g id="Page-1" stroke="none" stroke-width="1" fill="none" fill-rule="evenodd">
        <g id="Campaign-Editor_edit_images" transform="translate(-23.000000, -137.000000)" stroke-width="1.2" stroke="#282828">
            <g id="sidemenu" transform="translate(0.000000, 60.000000)">
                <g id="campaign">
                    <g transform="translate(23.000000, 77.000000)">
                        <path d="M2.6,12.6 L2.6,23.4 L23.4,23.4 L23.4,12.6 L2.6,12.6 Z" id="Rectangle-9"></path>
                        <path d="M2,4.6 C1.22680135,4.6 0.6,5.22680135 0.6,6 L0.6,11 C0.6,11.7731986 1.22680135,12.4 2,12.4 L24,12.4 C24.7731986,12.4 25.4,11.7731986 25.4,11 L25.4,6 C25.4,5.22680135 24.7731986,4.6 24,4.6 L2,4.6 Z" id="Rectangle-9"></path>
                        <path d="M9.6,4.4 L16.4,4.4 L16.4,2 C16.4,1.22680135 15.7731986,0.6 15,0.6 L11,0.6 C10.2268014,0.6 9.6,1.22680135 9.6,2 L9.6,4.4 Z" id="Rectangle-9"></path>
                        <path d="M10.6,14.5 L10.6,17.5" id="Line-3" stroke-linecap="round"></path>
                        <path d="M15.6,14.5 L15.6,17.5" id="Line-3" stroke-linecap="round"></path>
                    </g>
                </g>
            </g>
        </g>
    </g>
</svg>