<?xml version="1.0" encoding="UTF-8"?>
<svg width="13px" height="15px" viewBox="0 0 13 15" version="1.1" xmlns="http://www.w3.org/2000/svg" xmlns:xlink="http://www.w3.org/1999/xlink">
    <!-- Generator: Sketch 46 (44423) - http://www.bohemiancoding.com/sketch -->
    <title>Page 1</title>
    <desc>Created with Sketch.</desc>
    <defs></defs>
    <g id="Page-1" stroke="none" stroke-width="1" fill="none" fill-rule="evenodd">
        <g id="Campaign-Editor_edit_images" transform="translate(-29.000000, -263.000000)" fill="#000000">
            <g id="sidemenu" transform="translate(0.000000, 60.000000)">
                <g id="Page-1">
                    <path d="M29.0207516,203 L41.8946847,203 L41.9155273,207.312154 L41.2995314,207.312154 C41.097567,205.769524 40.5198888,204.998892 39.5663147,204.454344 C39.0301397,204.154173 37.5025968,203.990254 36.4376192,203.962221 L36.4376192,214.953489 C36.4376192,215.740686 36.5748712,216.263117 36.8500124,216.520874 C37.1248806,216.778632 37.6972799,216.90751 38.5675744,216.90751 L38.5675744,217.45042 L32.400105,217.45042 L32.400105,216.90751 C33.2354494,216.90751 33.7903737,216.776993 34.0654239,216.515596 C34.3403831,216.25438 34.4778171,215.733677 34.4778171,214.953489 L34.4778171,203.962221 C33.4337732,203.990345 31.9060483,204.154173 31.3491217,204.454344 C30.3259204,205.012818 29.7481511,205.78345 29.6159049,207.312154 L29,207.312154 L29.0207516,203 Z"></path>
                </g>
            </g>
        </g>
    </g>
</svg>