<?xml version="1.0" encoding="UTF-8"?>
<svg width="24px" height="20px" viewBox="0 0 24 20" version="1.1" xmlns="http://www.w3.org/2000/svg" xmlns:xlink="http://www.w3.org/1999/xlink">
    <!-- Generator: Sketch 46 (44423) - http://www.bohemiancoding.com/sketch -->
    <title>upload</title>
    <desc>Created with Sketch.</desc>
    <defs></defs>
    <g id="Page-1" stroke="none" stroke-width="1" fill="none" fill-rule="evenodd">
        <g id="Campaign-Editor_edit_images" transform="translate(-23.000000, -440.000000)" fill="#000000">
            <g id="sidemenu" transform="translate(0.000000, 60.000000)">
                <g id="upload">
                    <g transform="translate(23.000000, 380.000000)">
                        <path d="M15.622404,13.0959655 L12.3949678,9.86852941 C12.1435101,9.61588557 11.7342983,9.61588557 11.4828405,9.86852941 L8.25540441,13.0959655 C8.00276057,13.3486094 8.00276057,13.7566351 8.25540441,14.0080928 C8.38113327,14.1338217 8.54600414,14.1966861 8.71206112,14.1966861 C8.87693199,14.1966861 9.04298897,14.1338217 9.16871783,14.0080928 L11.2942472,11.8825634 L11.2942472,19.1985597 C11.2942472,19.5543961 11.5836608,19.8438097 11.9394972,19.8438097 C12.2953336,19.8438097 12.5847472,19.5543961 12.5847472,19.1985597 L12.5847472,11.8825634 L14.7102767,14.0080928 C14.8360055,14.1338217 15.0008764,14.1966861 15.1669334,14.1966861 C15.3318042,14.1966861 15.4978612,14.1338217 15.6235901,14.0080928 C15.8750478,13.7566351 15.8750478,13.3474233 15.622404,13.0959655" id="Fill-1"></path>
                        <path d="M19.0123387,6.48808364 C18.7015749,2.85855239 15.6473125,0 11.9394972,0 C8.02529687,0 4.84056112,3.18473575 4.84056112,7.09893612 C4.84056112,7.42274724 4.86428355,7.74774449 4.91054228,8.07274173 C4.83344439,8.06918336 4.75634651,8.06681112 4.67924862,8.06681112 C2.09943474,8.06681112 0,10.1662459 0,12.7460597 C0,15.3258736 2.09943474,17.4253084 4.67924862,17.4253084 L8.71324724,17.4253084 C9.07026976,17.4253084 9.35849724,17.1358948 9.35849724,16.7800584 C9.35849724,16.424222 9.06908364,16.1348084 8.71324724,16.1348084 L4.67924862,16.1348084 C2.81110754,16.1348084 1.2905,14.6153869 1.2905,12.7460597 C1.2905,10.8767325 2.80992142,9.35731112 4.67924862,9.35731112 C4.96984835,9.35731112 5.2675648,9.39882537 5.56528125,9.47948162 C5.78945818,9.53997381 6.02905469,9.47592325 6.19273943,9.30986627 C6.35642417,9.1449954 6.41810248,8.90421278 6.35523805,8.68003585 C6.20578676,8.15339798 6.13106112,7.6208295 6.13106112,7.09775 C6.13106112,3.89522243 8.73696967,1.28931388 11.9394972,1.28931388 C15.1420248,1.28931388 17.7479334,3.89522243 17.7479334,7.09775 C17.7479334,7.45477252 18.037347,7.743 18.3931834,7.743 C20.7061199,7.743 22.5884945,9.62537454 22.5884945,11.9383111 C22.5884945,14.2512477 20.7073061,16.1336222 18.3931834,16.1336222 L15.1657472,16.1336222 C14.8087247,16.1336222 14.5204972,16.4230358 14.5204972,16.7788722 C14.5204972,17.1358948 14.8099108,17.4241222 15.1657472,17.4241222 L18.3931834,17.4241222 C21.4177927,17.4241222 23.8789945,14.9629205 23.8789945,11.9383111 C23.8789945,9.12364522 21.7475345,6.79647518 19.0123387,6.48808364" id="Fill-3"></path>
                    </g>
                </g>
            </g>
        </g>
    </g>
</svg>